<svg width="128" height="128" viewBox="0 0 128 128" fill="none" xmlns="http://www.w3.org/2000/svg">
<path d="M15.816 84L31.56 42.784H39.368L54.984 84H47.816L43.72 73.376H27.144L23.048 84H15.816ZM28.232 68H42.568L35.4 49.12L28.232 68Z" fill="#E41B5B"/>
<path d="M60.5645 91.68V36.96H67.5405V91.68H60.5645Z" fill="black"/>
<path d="M92.647 84.64C86.119 84.64 81.2337 82.9333 77.991 79.52C74.7483 76.064 73.127 70.7307 73.127 63.52C73.127 56.0107 74.7483 50.5707 77.991 47.2C81.2337 43.8293 86.119 42.144 92.647 42.144C99.2177 42.144 104.103 43.8293 107.303 47.2C110.546 50.5707 112.167 56.0107 112.167 63.52C112.167 70.7307 110.546 76.064 107.303 79.52C104.103 82.9333 99.2177 84.64 92.647 84.64ZM92.647 78.752C96.9563 78.752 100.114 77.5787 102.119 75.232C104.167 72.8427 105.191 68.9387 105.191 63.52C105.191 57.8027 104.167 53.8133 102.119 51.552C100.114 49.248 96.9563 48.096 92.647 48.096C88.3803 48.096 85.223 49.248 83.175 51.552C81.1697 53.8133 80.167 57.8027 80.167 63.52C80.167 68.9387 81.1697 72.8427 83.175 75.232C85.223 77.5787 88.3803 78.752 92.647 78.752Z" fill="#3C37C8"/>
</svg>
