<svg width="199" height="68" viewBox="0 0 199 68" fill="none" xmlns="http://www.w3.org/2000/svg">
<path d="M21.408 45L29.28 24.392H33.184L40.992 45H37.408L35.36 39.688H27.072L25.024 45H21.408ZM27.616 37H34.784L31.2 27.56L27.616 37ZM46.5733 45.32C45.3359 45.32 44.3973 45.0213 43.7573 44.424C43.1173 43.8053 42.7973 42.792 42.7973 41.384V23.432H46.2853V41.064C46.2853 41.6613 46.3919 42.0667 46.6053 42.28C46.8186 42.4933 47.1386 42.6 47.5653 42.6C48.0773 42.6 48.5679 42.536 49.0373 42.408V44.936C48.6319 45.0853 48.2373 45.1813 47.8533 45.224C47.4906 45.288 47.0639 45.32 46.5733 45.32ZM54.7295 45.32C53.4922 45.32 52.5535 45.0213 51.9135 44.424C51.2735 43.8053 50.9535 42.792 50.9535 41.384V23.432H54.4415V41.064C54.4415 41.6613 54.5482 42.0667 54.7615 42.28C54.9748 42.4933 55.2948 42.6 55.7215 42.6C56.2335 42.6 56.7242 42.536 57.1935 42.408V44.936C56.7882 45.0853 56.3935 45.1813 56.0095 45.224C55.6468 45.288 55.2202 45.32 54.7295 45.32Z" fill="#E41B5B"/>
<path d="M67.2973 45V24.392H70.7853V45H67.2973ZM74.8285 45V29.832H78.0285L78.1885 31.432C78.8712 30.8987 79.6818 30.4507 80.6205 30.088C81.5805 29.704 82.6365 29.512 83.7885 29.512C85.7512 29.512 87.1805 29.9707 88.0765 30.888C88.9725 31.8053 89.4205 33.2347 89.4205 35.176V45H85.9645V35.336C85.9645 34.1627 85.7192 33.3413 85.2285 32.872C84.7592 32.4027 83.8632 32.168 82.5405 32.168C81.7512 32.168 80.9725 32.328 80.2045 32.648C79.4578 32.968 78.8285 33.384 78.3165 33.896V45H74.8285Z" fill="black"/>
<path d="M109.824 45.32C106.56 45.32 104.117 44.4667 102.496 42.76C100.874 41.032 100.064 38.3653 100.064 34.76C100.064 31.0053 100.874 28.2853 102.496 26.6C104.117 24.9147 106.56 24.072 109.824 24.072C113.109 24.072 115.552 24.9147 117.152 26.6C118.773 28.2853 119.584 31.0053 119.584 34.76C119.584 38.3653 118.773 41.032 117.152 42.76C115.552 44.4667 113.109 45.32 109.824 45.32ZM109.824 42.376C111.978 42.376 113.557 41.7893 114.56 40.616C115.584 39.4213 116.096 37.4693 116.096 34.76C116.096 31.9013 115.584 29.9067 114.56 28.776C113.557 27.624 111.978 27.048 109.824 27.048C107.69 27.048 106.112 27.624 105.088 28.776C104.085 29.9067 103.584 31.9013 103.584 34.76C103.584 37.4693 104.085 39.4213 105.088 40.616C106.112 41.7893 107.69 42.376 109.824 42.376ZM122.985 45V29.832H126.185L126.377 31.592C127.102 31.1227 127.966 30.696 128.969 30.312C129.971 29.928 130.963 29.6613 131.945 29.512V32.168C131.347 32.2747 130.697 32.4347 129.993 32.648C129.31 32.84 128.659 33.064 128.041 33.32C127.422 33.5547 126.899 33.8 126.473 34.056V45H122.985ZM140.132 45.32C138.766 45.32 137.561 45.0853 136.516 44.616C135.47 44.1467 134.66 43.368 134.084 42.28C133.508 41.192 133.22 39.7307 133.22 37.896C133.22 36.0827 133.529 34.5573 134.148 33.32C134.766 32.0613 135.62 31.112 136.708 30.472C137.817 29.832 139.065 29.512 140.452 29.512C141.369 29.512 142.18 29.6187 142.884 29.832C143.609 30.0453 144.302 30.376 144.964 30.824V23.432H148.452V45H145.476L145.252 43.496C144.569 44.1147 143.822 44.5733 143.012 44.872C142.201 45.1707 141.241 45.32 140.132 45.32ZM141.06 42.696C142.617 42.696 143.918 42.1627 144.964 41.096V33.512C143.961 32.616 142.702 32.168 141.188 32.168C139.716 32.168 138.606 32.6587 137.86 33.64C137.113 34.6213 136.74 36.0507 136.74 37.928C136.74 39.7413 137.081 40.9893 137.764 41.672C138.468 42.3547 139.566 42.696 141.06 42.696ZM159.852 45.32C157.207 45.32 155.159 44.6693 153.708 43.368C152.258 42.0667 151.532 40.072 151.532 37.384C151.532 34.952 152.151 33.032 153.388 31.624C154.626 30.216 156.503 29.512 159.02 29.512C161.324 29.512 163.052 30.12 164.204 31.336C165.378 32.5307 165.964 34.0773 165.964 35.976V38.792H154.86C155.031 40.264 155.564 41.2773 156.46 41.832C157.356 42.3867 158.722 42.664 160.556 42.664C161.324 42.664 162.114 42.5893 162.924 42.44C163.735 42.2907 164.439 42.0987 165.036 41.864V44.424C164.354 44.7227 163.564 44.9467 162.668 45.096C161.794 45.2453 160.855 45.32 159.852 45.32ZM154.86 36.52H162.892V35.464C162.892 34.4187 162.604 33.608 162.028 33.032C161.452 32.4347 160.482 32.136 159.116 32.136C157.495 32.136 156.375 32.488 155.756 33.192C155.159 33.896 154.86 35.0053 154.86 36.52ZM169.36 45V29.832H172.56L172.752 31.592C173.477 31.1227 174.341 30.696 175.344 30.312C176.346 29.928 177.338 29.6613 178.32 29.512V32.168C177.722 32.2747 177.072 32.4347 176.368 32.648C175.685 32.84 175.034 33.064 174.416 33.32C173.797 33.5547 173.274 33.8 172.848 34.056V45H169.36Z" fill="#3C37C8"/>
</svg>
