<svg width="159" height="23" viewBox="0 0 159 23" fill="none" xmlns="http://www.w3.org/2000/svg">
<g clip-path="url(#clip0_13_2)">
<path d="M1.408 22L9.28 1.392H13.184L20.992 22H17.408L15.36 16.688H7.072L5.024 22H1.408ZM7.616 14H14.784L11.2 4.56L7.616 14ZM26.5733 22.32C25.3359 22.32 24.3973 22.0213 23.7573 21.424C23.1173 20.8053 22.7973 19.792 22.7973 18.384V0.431999H26.2853V18.064C26.2853 18.6613 26.3919 19.0667 26.6053 19.28C26.8186 19.4933 27.1386 19.6 27.5653 19.6C28.0773 19.6 28.5679 19.536 29.0373 19.408V21.936C28.6319 22.0853 28.2373 22.1813 27.8533 22.224C27.4906 22.288 27.0639 22.32 26.5733 22.32ZM34.7295 22.32C33.4922 22.32 32.5535 22.0213 31.9135 21.424C31.2735 20.8053 30.9535 19.792 30.9535 18.384V0.431999H34.4415V18.064C34.4415 18.6613 34.5482 19.0667 34.7615 19.28C34.9748 19.4933 35.2948 19.6 35.7215 19.6C36.2335 19.6 36.7242 19.536 37.1935 19.408V21.936C36.7882 22.0853 36.3935 22.1813 36.0095 22.224C35.6468 22.288 35.2202 22.32 34.7295 22.32Z" fill="#E41B5B"/>
<path d="M47.2973 22V1.392H50.7853V22H47.2973ZM54.8285 22V6.832H58.0285L58.1885 8.432C58.8712 7.89867 59.6818 7.45067 60.6205 7.088C61.5805 6.704 62.6365 6.512 63.7885 6.512C65.7512 6.512 67.1805 6.97067 68.0765 7.888C68.9725 8.80533 69.4205 10.2347 69.4205 12.176V22H65.9645V12.336C65.9645 11.1627 65.7192 10.3413 65.2285 9.872C64.7592 9.40267 63.8632 9.168 62.5405 9.168C61.7512 9.168 60.9725 9.328 60.2045 9.648C59.4578 9.968 58.8285 10.384 58.3165 10.896V22H54.8285Z" fill="black"/>
<path d="M89.8235 22.32C86.5595 22.32 84.1168 21.4667 82.4955 19.76C80.8742 18.032 80.0635 15.3653 80.0635 11.76C80.0635 8.00533 80.8742 5.28533 82.4955 3.6C84.1168 1.91467 86.5595 1.072 89.8235 1.072C93.1088 1.072 95.5515 1.91467 97.1515 3.6C98.7728 5.28533 99.5835 8.00533 99.5835 11.76C99.5835 15.3653 98.7728 18.032 97.1515 19.76C95.5515 21.4667 93.1088 22.32 89.8235 22.32ZM89.8235 19.376C91.9782 19.376 93.5568 18.7893 94.5595 17.616C95.5835 16.4213 96.0955 14.4693 96.0955 11.76C96.0955 8.90133 95.5835 6.90667 94.5595 5.776C93.5568 4.624 91.9782 4.048 89.8235 4.048C87.6902 4.048 86.1115 4.624 85.0875 5.776C84.0848 6.90667 83.5835 8.90133 83.5835 11.76C83.5835 14.4693 84.0848 16.4213 85.0875 17.616C86.1115 18.7893 87.6902 19.376 89.8235 19.376ZM102.985 22V6.832H106.185L106.377 8.592C107.102 8.12267 107.966 7.696 108.969 7.312C109.971 6.928 110.963 6.66133 111.945 6.512V9.168C111.347 9.27467 110.697 9.43467 109.993 9.648C109.31 9.84 108.659 10.064 108.041 10.32C107.422 10.5547 106.899 10.8 106.473 11.056V22H102.985ZM120.132 22.32C118.766 22.32 117.561 22.0853 116.516 21.616C115.47 21.1467 114.66 20.368 114.084 19.28C113.508 18.192 113.22 16.7307 113.22 14.896C113.22 13.0827 113.529 11.5573 114.148 10.32C114.766 9.06133 115.62 8.112 116.708 7.472C117.817 6.832 119.065 6.512 120.452 6.512C121.369 6.512 122.18 6.61867 122.884 6.832C123.609 7.04533 124.302 7.376 124.964 7.824V0.431999H128.452V22H125.476L125.252 20.496C124.569 21.1147 123.822 21.5733 123.012 21.872C122.201 22.1707 121.241 22.32 120.132 22.32ZM121.06 19.696C122.617 19.696 123.918 19.1627 124.964 18.096V10.512C123.961 9.616 122.702 9.168 121.188 9.168C119.716 9.168 118.606 9.65867 117.86 10.64C117.113 11.6213 116.74 13.0507 116.74 14.928C116.74 16.7413 117.081 17.9893 117.764 18.672C118.468 19.3547 119.566 19.696 121.06 19.696ZM139.852 22.32C137.207 22.32 135.159 21.6693 133.708 20.368C132.258 19.0667 131.532 17.072 131.532 14.384C131.532 11.952 132.151 10.032 133.388 8.624C134.626 7.216 136.503 6.512 139.02 6.512C141.324 6.512 143.052 7.12 144.204 8.336C145.378 9.53067 145.964 11.0773 145.964 12.976V15.792H134.86C135.031 17.264 135.564 18.2773 136.46 18.832C137.356 19.3867 138.722 19.664 140.556 19.664C141.324 19.664 142.114 19.5893 142.924 19.44C143.735 19.2907 144.439 19.0987 145.036 18.864V21.424C144.354 21.7227 143.564 21.9467 142.668 22.096C141.794 22.2453 140.855 22.32 139.852 22.32ZM134.86 13.52H142.892V12.464C142.892 11.4187 142.604 10.608 142.028 10.032C141.452 9.43467 140.482 9.136 139.116 9.136C137.495 9.136 136.375 9.488 135.756 10.192C135.159 10.896 134.86 12.0053 134.86 13.52ZM149.36 22V6.832H152.56L152.752 8.592C153.477 8.12267 154.341 7.696 155.344 7.312C156.346 6.928 157.338 6.66133 158.32 6.512V9.168C157.722 9.27467 157.072 9.43467 156.368 9.648C155.685 9.84 155.034 10.064 154.416 10.32C153.797 10.5547 153.274 10.8 152.848 11.056V22H149.36Z" fill="#3C37C8"/>
</g>
<defs>
<clipPath id="clip0_13_2">
<rect width="159" height="23" fill="white"/>
</clipPath>
</defs>
</svg>
