<?xml version="1.0" standalone="no"?>
<!DOCTYPE svg PUBLIC "-//W3C//DTD SVG 20010904//EN"
 "http://www.w3.org/TR/2001/REC-SVG-20010904/DTD/svg10.dtd">
<svg version="1.0" xmlns="http://www.w3.org/2000/svg"
 width="512.000000pt" height="512.000000pt" viewBox="0 0 512.000000 512.000000"
 preserveAspectRatio="xMidYMid meet">
<metadata>
Created by potrace 1.14, written by Peter Selinger 2001-2017
</metadata>
<g transform="translate(0.000000,512.000000) scale(0.100000,-0.100000)"
fill="#000000" stroke="none">
<path d="M1140 5113 c-76 -8 -199 -37 -280 -65 -191 -68 -331 -157 -481 -307
-157 -157 -246 -300 -314 -504 -67 -203 -66 -164 -62 -1732 3 -1397 3 -1411
24 -1495 66 -263 168 -447 352 -631 157 -157 300 -246 504 -314 203 -67 164
-66 1732 -62 1397 3 1411 3 1495 24 263 66 447 168 631 352 157 157 246 300
314 504 67 203 66 164 62 1732 -3 1397 -3 1411 -24 1495 -66 263 -168 447
-352 631 -157 157 -300 246 -504 314 -200 67 -164 65 -1688 63 -756 0 -1390
-3 -1409 -5z m1560 -2568 l0 -1095 -140 0 -140 0 0 1095 0 1095 140 0 140 0 0
-1095z m1280 860 c251 -66 408 -229 469 -485 47 -197 48 -474 1 -667 -62 -258
-214 -417 -465 -488 -79 -22 -375 -32 -471 -16 -327 55 -514 248 -569 586 -20
123 -20 385 1 506 50 289 186 463 426 543 116 39 167 45 363 41 128 -2 199 -8
245 -20z m-2395 -29 c8 -18 144 -377 304 -797 159 -420 294 -776 300 -791 l11
-28 -144 0 -143 0 -83 215 -83 215 -331 -2 -331 -3 -80 -210 -81 -210 -146 -3
-146 -3 168 438 c92 241 234 612 315 826 l148 387 154 0 154 0 14 -34z"/>
<path d="M3605 3190 c-191 -28 -306 -118 -355 -277 -34 -111 -43 -197 -37
-378 5 -177 22 -268 66 -354 70 -135 223 -211 426 -211 329 0 478 161 501 540
17 280 -50 508 -177 600 -97 70 -270 103 -424 80z"/>
<path d="M1274 2784 c-76 -202 -140 -371 -142 -375 -2 -5 125 -9 282 -9 157 0
286 2 286 4 0 7 -271 719 -279 734 -4 7 -67 -145 -147 -354z"/>
</g>
</svg>
